<?xml version="1.0" encoding="utf-8"?>
<!-- Generator: Adobe Illustrator 20.1.0, SVG Export Plug-In . SVG Version: 6.00 Build 0)  -->
<!DOCTYPE svg PUBLIC "-//W3C//DTD SVG 1.1//EN" "http://www.w3.org/Graphics/SVG/1.1/DTD/svg11.dtd">
<svg version="1.1" id="Layer_1" xmlns="http://www.w3.org/2000/svg" xmlns:xlink="http://www.w3.org/1999/xlink" x="0px" y="0px"
	 viewBox="0 0 512 512" style="enable-background:new 0 0 512 512;" xml:space="preserve">
<style type="text/css">
	.st0{fill:#FFFFFF;}
</style>
<g>
	<g>
		<path class="st0" d="M346.2,60.9c-33.2,0-60.1,27-60.1,60.1s27,60.1,60.1,60.1s60.1-27,60.1-60.1S379.4,60.9,346.2,60.9z
			 M346.2,162c-22.6,0-40.9-18.4-40.9-40.9s18.4-40.9,40.9-40.9c22.6,0,40.9,18.4,40.9,40.9S368.8,162,346.2,162z"/>
	</g>
</g>
<g>
	<g>
		<path class="st0" d="M487.1,283.7V17.4c0-5.3-4.3-9.6-9.6-9.6H9.6C4.3,7.8,0,12.1,0,17.4v330.7c0,5.3,4.3,9.6,9.6,9.6h10.1H310
			c1.5,20.3,9.1,40.3,22.8,56.9l-73.2,73.2c-3.7,3.7-3.7,9.8,0,13.6c1.9,1.9,4.3,2.8,6.8,2.8s4.9-0.9,6.8-2.8l73.2-73.2
			c18.6,15.4,41.5,23.1,64.4,23.1c25.9,0,51.8-9.9,71.5-29.6c19.1-19.1,29.6-44.5,29.6-71.5C512,325.5,503.2,302.1,487.1,283.7z
			 M19.2,334.4V27h448.7v239.6c-27.1-18.5-61.3-22.4-91.3-11.6l-50.7-55.8c-1.8-2-4.4-3.1-7.1-3.1s-5.3,1.1-7.1,3.1l-35.8,39.3
			l-77.6-85.4c-1.8-2-4.4-3.1-7.1-3.1s-5.3,1.1-7.1,3.1L19.2,334.4z M310.4,338.5h-269l149.7-164.7L317,312.3
			C313.6,320.8,311.4,329.6,310.4,338.5z M288.8,252.8l29.9-32.9l39.7,43.7c-6.8,4.1-13.3,9.1-19.2,15c-4.9,4.9-9.1,10.1-12.8,15.6
			L288.8,252.8z M468.8,408.1c-16,16-37,24-58,24c-21,0-42-8-58-24c-32-32-32-84,0-116c16-16,37-24,58-24s42,8,58,24
			c15.5,15.5,24,36.1,24,58C492.8,372.1,484.3,392.6,468.8,408.1z"/>
	</g>
</g>
<g>
	<g>
		<path class="st0" d="M459.7,301.2c-13.1-13.1-30.4-20.3-48.9-20.3s-35.9,7.2-48.9,20.3c-13.1,13.1-20.3,30.4-20.3,48.9
			s7.2,35.9,20.3,48.9c13.1,13.1,30.4,20.3,48.9,20.3s35.9-7.2,48.9-20.3C486.7,372.1,486.7,328.2,459.7,301.2z M360.8,350.2
			c0-9.9,2.9-19.3,8.1-27.4l38.5,43.3h-44C361.7,361,360.8,355.7,360.8,350.2z M446.2,385.5c-9.4,9.4-22,14.6-35.4,14.6
			s-25.9-5.2-35.4-14.6c-0.1-0.1-0.2-0.2-0.2-0.3h71.2C446.3,385.3,446.3,385.4,446.2,385.5z M458.2,366.1h-25.1L382.4,309
			c8.3-5.8,18.1-8.9,28.4-8.9c13.4,0,25.9,5.2,35.4,14.6C460,328.6,464,348.7,458.2,366.1z"/>
	</g>
</g>
</svg>
