<svg xmlns="http://www.w3.org/2000/svg" xmlns:xlink="http://www.w3.org/1999/xlink" viewBox="0 0 112.59 112.59"><defs><style>.cls-1{fill-rule:evenodd;fill:url(#Naamloos_verloop_8);}</style><linearGradient id="Naamloos_verloop_8" x1="17.78" y1="95.84" x2="92.28" y2="19.34" gradientUnits="userSpaceOnUse"><stop offset="0" stop-color="#b08cfc"/><stop offset="1" stop-color="#6bc4db"/></linearGradient></defs><title>Middel 1</title><g id="Laag_2" data-name="Laag 2"><g id="Layer_1" data-name="Layer 1"><path class="cls-1" d="M56.29,90l-8.13,8.13,9.23,9.23a17.94,17.94,0,0,0,25.3,0L107.37,82.7A17.92,17.92,0,0,0,112.13,66H99.66a6.45,6.45,0,0,1-.41,8.59L74.57,99.24c-3.44,3.44-7.25,1.79-10.15-1.11L56.29,90ZM25.79,59.5l-8.13,8.13,30.5,30.5L56.29,90,25.79,59.5Zm-3.21-3.21-8.13-8.13L5.22,57.4a17.94,17.94,0,0,0,0,25.3l24.67,24.67a17.94,17.94,0,0,0,25.3,0l1.11-1.11-8.13-8.13C45.26,101,41.44,102.67,38,99.24L13.35,74.57c-3.44-3.44-1.79-7.25,1.11-10.15l8.13-8.13ZM112.13,66h-32l.07.07L112.13,66ZM47.06,13.35l1.11,1.11,8.13-8.13L55.19,5.22a17.94,17.94,0,0,0-25.3,0L5.22,29.89a17.94,17.94,0,0,0,0,25.3l1.11,1.11,8.13-8.13C11.55,45.26,9.92,41.44,13.35,38L38,13.35a6.44,6.44,0,0,1,9,0Zm9.23,9.23,8.13-8.13L56.29,6.32l-8.13,8.13,8.13,8.13Zm0,0-8.13-8.13L14.45,48.17l8.13,8.13L56.29,22.58ZM87.6,75H98.86c2.67-2.67,3-6.27.79-9H96.57l-9,9Zm0,0,9-9H80.31L59.5,86.8l8.13,8.13,20-20Zm-13-61.61L99.24,38c2.14,2.64,2.82,5.82.38,8.64h12.5a17.93,17.93,0,0,0-4.75-16.76L82.7,5.22a18,18,0,0,0-23-1.93l8.48,8.48a6.44,6.44,0,0,1,6.41,1.57Zm22,33.3-32.2-32.2-8.13,8.13L80.42,46.71l.06-.06Zm-10-10,10,10h3c3.22-3.84.79-7.91-1.74-10Z"/></g></g></svg>